<svg width="261" height="228" viewBox="0 0 261 228" fill="none" xmlns="http://www.w3.org/2000/svg">
<g clip-path="url(#clip0_119:24)">
<path d="M149.42 104.092C147.062 92.1661 142.761 81.0733 141.549 70.0395C141.287 67.6571 139.401 65.6565 137.297 65.8218C135.193 65.987 130.625 69.0102 129.448 78.3177C128.596 85.0561 134.098 93.893 131.281 96.7329C128.465 99.5728 151.5 105.4 149.42 104.092Z" fill="#F5C1C7"/>
<path d="M75.8234 14.8568C70.6663 16.4611 66.6432 39.6609 65.0446 46.5425C55.2853 88.554 41.923 137.239 40.7369 142.344C39.2543 148.726 41.7247 149.86 44.72 151.677C47.7153 153.494 107.252 167.886 112.409 166.282C116.535 164.998 119.018 155.486 119.018 155.486C128.624 115.121 145.278 41.8665 145.55 38.3425C145.89 33.9375 146.508 31.2786 144.161 29.6124C141.814 27.9462 134.465 26.2387 130.79 25.385C114.187 21.3408 83.9274 12.3357 75.8234 14.8568Z" fill="#5992E8"/>
<path opacity="0.4" d="M107.016 57.869C108.946 59.8288 109.707 61.6705 109.605 64.4191V64.4191C109.412 69.6093 102.385 71.9464 97.2001 71.6354C96.8475 71.6142 96.5072 71.5753 96.1861 71.5152C93.6231 71.035 90.9719 65.8814 91.8877 61.8552V61.8552C93.174 56.1999 102.171 54.0087 106.721 57.6052C106.827 57.6888 106.926 57.7766 107.016 57.869Z" fill="#FAF8F9"/>
<path opacity="0.4" d="M103.89 51.7388C102.859 53.1399 101.011 54.2412 99.8785 54.5365C99.466 54.644 99.0598 54.4624 98.7317 54.1901C98.5169 54.0118 98.3275 53.7916 98.3058 53.5132C98.2678 53.0258 98.3996 52.1848 99.0524 51.0107C99.6537 49.9291 101.451 49.0974 103.089 48.5642C104.308 48.1674 105.194 48.9858 104.718 50.1766C104.496 50.7314 104.217 51.2944 103.89 51.7388Z" fill="#FAF8F9"/>
<circle opacity="0.4" cx="131.043" cy="40.3767" r="3.62998" transform="rotate(37.0464 131.043 40.3767)" fill="#FAF8F9"/>
<path d="M171.172 145.614C149.858 126.995 153.289 113.976 149.466 103.954C147.224 98.0767 136.985 88.1145 134.942 96.9909C133.998 101.093 122.589 94.875 120.509 93.567C114.299 89.6612 107.105 83.5444 101.911 79.6276C97.4589 76.2704 92.1941 71.1173 91.4295 77.1189C90.6648 83.1206 102.702 96.4888 106.061 100.947C109.421 105.406 112.78 109.865 107.439 111.327C102.098 112.79 81.1757 92.0393 74.3458 89.7721C67.5158 87.5048 64.0454 89.6962 76.6488 104.45C89.2522 119.203 91.0123 126.582 89.8857 127.718C88.759 128.854 87.6324 129.99 74.2643 121.238C60.8962 112.486 51.632 110.058 49.9421 111.762C48.2521 113.466 49.4673 115.525 50.9579 117.276C55.4472 122.552 74.8774 137.62 76.2755 140.133C77.2973 141.97 75.3148 142.575 73.9302 142.498C61.0178 141.781 47.7183 138.85 45.9378 139.338C44.1574 139.825 42.5579 142.745 45.827 145.988C47.9836 148.127 57.4817 153.416 62.2831 155.549C73.8775 162.166 121.78 185.632 125.747 186.863C130.706 188.401 121.549 183.877 126.685 180.931C136.58 175.255 141.772 169.697 148.633 161.701C154.591 154.756 192.487 164.234 171.172 145.614Z" fill="#F5C1C7"/>
<path d="M219.326 169.662C200.167 160.57 164.133 139.563 158.784 131.302C158.71 131.174 158.633 131.047 158.553 130.919C158.622 131.044 158.699 131.171 158.784 131.302C170.559 151.628 106.573 173.645 124.563 185.261C142.665 196.949 280.936 263.054 284.097 245.007C285.952 234.416 308.309 240.272 311.011 230.006C314.202 217.883 339.77 215.857 334.633 208.592C329.496 201.328 238.787 178.898 219.326 169.662Z" fill="#F5C1C7"/>
</g>
<defs>
<clipPath id="clip0_119:24">
<rect width="261" height="228" fill="white"/>
</clipPath>
</defs>
</svg>
